{"title":"The Revenant 2015 DVDSCR x264 AC3 TiTAN","uid":13044265,"size":2082156526,"categoryP":"video","categoryS":"movies","magnet":"?xt=urn:btih:93f06583e1fa24110dea2922fad7aa60d9021872&amp;dn=The+Revenant+2015+DVDSCR+x264+AC3+TiTAN&amp;tr=udp%3A%2F%2Ftracker.leechers-paradise.org%3A6969&amp;tr=udp%3A%2F%2Fzer0day.ch%3A1337&amp;tr=udp%3A%2F%2Fopen.demonii.com%3A1337&amp;tr=udp%3A%2F%2Ftracker.coppersurfer.tk%3A6969&amp;tr=udp%3A%2F%2Fexodus.desync.com%3A6969","seeders":3,"leechers":3,"uploader":"xxxlavalxxx","files":3,"time":1450559270,"description":"http://extraimago.com/image/gHJ\r\n \nhttp://www.imdb.com/title/tt1663202/\r\n\r\n\r\nIn the 1820s, a frontiersman named Hugh Glass sets out on a path of vengeance against those who left him for dead after a bear mauling.\r\n\r\nDirector: Alejandro González Iñárritu\r\nWriters: Mark L. Smith (screenplay), Alejandro González Iñárritu (screenplay)\r\nStars: Tom Hardy, Leonardo DiCaprio, Domhnall Gleeson \r\nGenres: Adventure | Drama | Thriller | Western\r\nCountry: USA\r\nLanguage: English\r\n\r\n\r\nNice pre release DVDSCR here.. Enjoy and Merry Christmas\r\n\r\nGeneral\r\n\r\nUnique ID: Format: Matroska\r\nFormat version: Version 2\r\nFile size: 1.94 GiB\r\nDuration: 2h 36mn\r\nOverall bit rate mode: Variable\r\nOverall bit rate: 1 776 Kbps\r\n\r\nVideo\r\nID: 1\r\nFormat: AVC\r\nFormat/Info: Advanced Video Codec\r\nFormat profile:   \r\nFormat settings, CABAC: Yes\r\nFormat settings, ReFrames: 3 frames\r\nCodec ID: V_MPEG4/ISO/AVC\r\nDuration: 2h 36mn\r\nBit rate mode: Variable\r\nBit rate: 1 356 Kbps\r\nMaximum bit rate: 40.0 Mbps\r\nWidth: 720 pixels\r\nHeight: 304 pixels\r\nDisplay aspect ratio: 2.35:1\r\nFrame rate mode: Constant\r\nFrame rate: 23.976 fps\r\nColor space: YUV\r\nChroma subsampling: 4:2:0\r\nBit depth: 8 bits\r\nScan type: Progressive\r\nBits/(Pixel*Frame): 0.258\r\nStream size: 1.48 GiB (76%)\r\nDefault: Yes\r\nForced: No\r\nColor primaries: BT.709\r\nTransfer characteristics: BT.709\r\nMatrix coefficients: BT.709\r\n\r\nAudio\r\nID: 2\r\nFormat: AC-3\r\nFormat/Info: Audio Coding 3\r\nMode extension: CM (complete main)\r\nFormat settings, Endianness: Big\r\nCodec ID: A_AC3\r\nDuration: 2h 36mn\r\nBit rate mode: Constant\r\nBit rate: 384 Kbps\r\nChannel(s): 6 channels\r\nChannel positions: Front: L C R, Side: L R, LFE\r\nSampling rate: 48.0 KHz\r\nBit depth: 16 bits\r\nCompression mode: Lossy\r\nStream size: 429 MiB (22%)\r\nLanguage: English\r\nDefault: Yes\r\n\r\n \nhttp://extraimago.com/image/gHK \nhttp://extraimago.com/image/gHZ \nhttp://extraimago.com/image/gHe \nhttp://extraimago.com/image/gH4 \nhttp://extraimago.com/image/gHB \nhttp://extraimago.com/image/gHC","torrent":{"xt":"urn:btih:93f06583e1fa24110dea2922fad7aa60d9021872","amp;dn":"The+Revenant+2015+DVDSCR+x264+AC3+TiTAN","amp;tr":["udp%3A%2F%2Ftracker.leechers-paradise.org%3A6969","udp%3A%2F%2Fzer0day.ch%3A1337","udp%3A%2F%2Fopen.demonii.com%3A1337","udp%3A%2F%2Ftracker.coppersurfer.tk%3A6969","udp%3A%2F%2Fexodus.desync.com%3A6969"],"infoHash":"93f06583e1fa24110dea2922fad7aa60d9021872","infoHashBuffer":{"type":"Buffer","data":[147,240,101,131,225,250,36,17,13,234,41,34,250,215,170,96,217,2,24,114]},"announce":[],"urlList":[]}}